<svg xmlns="http://www.w3.org/2000/svg" xmlns:xlink="http://www.w3.org/1999/xlink" viewBox="0 0 2071.51 1836.15"><defs><style>.cls-1{isolation:isolate;}.cls-2{mix-blend-mode:color-burn;}.cls-3{fill:#d4d4d4;}.cls-4{mix-blend-mode:screen;fill:url(#linear-gradient);}.cls-5{fill:url(#linear-gradient-2);}.cls-6{fill:url(#linear-gradient-3);}.cls-7{fill:url(#linear-gradient-4);}.cls-8{fill:url(#linear-gradient-5);}.cls-9{fill:url(#linear-gradient-6);}.cls-10{fill:url(#linear-gradient-7);}</style><linearGradient id="linear-gradient" x1="-6.04" y1="2054.39" x2="1229.18" y2="819.17" gradientUnits="userSpaceOnUse"><stop offset="0"/><stop offset="0.09" stop-color="#080808"/><stop offset="0.22" stop-color="#202020"/><stop offset="0.39" stop-color="#454545"/><stop offset="0.59" stop-color="#7a7a7a"/><stop offset="0.8" stop-color="#bcbcbc"/><stop offset="1" stop-color="#fff"/></linearGradient><linearGradient id="linear-gradient-2" x1="1377.09" y1="1233.69" x2="2107.17" y2="812.18" gradientUnits="userSpaceOnUse"><stop offset="0" stop-color="#d4d4d4"/><stop offset="0.77" stop-color="#f4f4f4"/><stop offset="1" stop-color="#fff"/></linearGradient><linearGradient id="linear-gradient-3" x1="349.85" y1="404.89" x2="961.69" y2="51.65" xlink:href="#linear-gradient-2"/><linearGradient id="linear-gradient-4" x1="984.62" y1="1432.26" x2="1488.22" y2="1141.5" xlink:href="#linear-gradient-2"/><linearGradient id="linear-gradient-5" x1="1472.88" y1="1663.81" x2="2073.31" y2="1317.15" xlink:href="#linear-gradient-2"/><linearGradient id="linear-gradient-6" x1="905.89" y1="371.89" x2="1435.54" y2="66.1" xlink:href="#linear-gradient-2"/><linearGradient id="linear-gradient-7" x1="-55.24" y1="1102.66" x2="920.45" y2="539.35" xlink:href="#linear-gradient-2"/></defs><title>Asset 1</title><g class="cls-1"><g id="Layer_2" data-name="Layer 2"><g id="Layer_1-2" data-name="Layer 1"><g class="cls-2"><polygon class="cls-3" points="1721.96 346.78 1181.55 346.78 1361.44 527.48 229.1 1654.71 409.73 1836.15 1542.07 708.93 1721.96 889.63 1721.96 346.78"/></g><polygon class="cls-4" points="1729.16 317.97 1188.76 317.97 1368.64 498.68 236.31 1625.9 416.93 1807.35 1549.27 680.12 1729.16 860.82 1729.16 317.97"/><path class="cls-5" d="M1514.77,1401.92l-96.55-97,2.14-2.12L1880,845.75l-94.91-95.34h286.4V1038.1l-94.94-95.37Zm-88-97,88.06,88.46,461.8-459.19,88.91,89.31V756.42H1799.58l89,89.35-2.14,2.12Z"/><path class="cls-6" d="M465.65,546.19l-81.46-81.82,2.13-2.12,384.18-382L690.62,0H931.87V242.35L852,162.07Zm-72.95-81.8,73,73.3L852,153.57l73.88,74.21V6H705.09L779,80.26l-2.14,2.12Z"/><path class="cls-7" d="M1080.38,1548.91l-67.65-68,317.21-315.42-66.12-66.42h199.93V1300l-66.16-66.45ZM1021.24,1481l59.16,59.43L1397.61,1225l60.13,60.4V1105.13H1278.29l60.16,60.44Z"/><path class="cls-8" d="M1586.57,1802.51l-80-80.37,2.14-2.12,376.89-374.75-78.43-78.79h236.89v238l-78.46-78.82Zm-71.5-80.34,71.52,71.83,379-376.87,72.43,72.75V1272.49H1821.63l72.47,72.8-2.14,2.12Z"/><path class="cls-9" d="M1006.48,494.47l-71-71.29L1269.34,91.23l-69.43-69.75h209.88V232.31l-69.48-69.78ZM944,423.2,1006.5,486l333.84-332,63.43,63.73V27.5H1214.38l63.47,63.76Z"/><path class="cls-10" d="M127.89,1326.82,0,1198.35l2.13-2.12,616.47-613L492.48,456.55H872.65V838.44L746.49,711.71ZM8.51,1198.37l119.4,119.94,618.61-615.1L866.64,823.87V462.56H507l120.16,120.7L625,585.39Z"/></g></g></g></svg>