<svg xmlns="http://www.w3.org/2000/svg" viewBox="0 0 136.36 369.43"><defs><style>.cls-1{fill:#eee;}</style></defs><title>Asset 3</title><g id="Layer_2" data-name="Layer 2"><g id="Layer_1-2" data-name="Layer 1"><path class="cls-1" d="M45.06,199.84H72.91V187.93a11.23,11.23,0,0,0-1.6-5.76,26,26,0,0,0-3.7-4.78c-1.42-1.47-3-2.93-4.55-4.34a57.84,57.84,0,0,1-4.33-4.23,23.29,23.29,0,0,1-3.21-4.37,9.08,9.08,0,0,1-1.14-4.51,9.79,9.79,0,0,1,.53-3.19,7.35,7.35,0,0,1,3.92-4.36,7.25,7.25,0,0,1,3.21-.67,7.77,7.77,0,0,1,3.87.81,6,6,0,0,1,2.2,2.11,9.12,9.12,0,0,1,1.13,3.21,25.42,25.42,0,0,1,.33,4.11v1.91a11.86,11.86,0,0,1-.13,1.67l-.28,2H99l.16-1.57c.09-.92.18-1.81.28-2.67s.14-1.87.14-2.86a28.44,28.44,0,0,0-3.12-13.35A30.28,30.28,0,0,0,87.85,137,39.45,39.45,0,0,0,75,130.7a55.92,55.92,0,0,0-14.31-2.14V0H57.17V132h1.74A54.14,54.14,0,0,1,74,134a36.24,36.24,0,0,1,11.76,5.74,26.9,26.9,0,0,1,7.62,8.93A26.08,26.08,0,0,1,96,162.92l-.12,1.13H73V162a28.85,28.85,0,0,0-.37-4.67,12.35,12.35,0,0,0-1.58-4.45,9.46,9.46,0,0,0-3.44-3.32A11.14,11.14,0,0,0,62,148.24a10.79,10.79,0,0,0-4.72,1,11.11,11.11,0,0,0-3.5,2.6,11,11,0,0,0-2.19,3.76,13.21,13.21,0,0,0-.73,4.33,12.68,12.68,0,0,0,1.58,6.21,26.34,26.34,0,0,0,3.69,5,62.66,62.66,0,0,0,4.58,4.48c1.53,1.35,3,2.74,4.36,4.15a22.78,22.78,0,0,1,3.2,4.13,7.67,7.67,0,0,1,1.12,4v8.43H48.53V192a7,7,0,0,0-2.31-4.92,41.18,41.18,0,0,0-4.74-4c-1.8-1.32-3.74-2.76-5.82-4.34a39.42,39.42,0,0,1-5.6-5.17,27.44,27.44,0,0,1-4.26-6.38,18.16,18.16,0,0,1-1.64-7.88,25.27,25.27,0,0,1,2.47-11.24,24.85,24.85,0,0,1,7-8.6A33.3,33.3,0,0,1,44.55,134l-1-3.32a36.6,36.6,0,0,0-12.1,6.14,28.31,28.31,0,0,0-7.93,9.79,28.87,28.87,0,0,0-2.82,12.78,21.41,21.41,0,0,0,2,9.39,30.56,30.56,0,0,0,4.8,7.2,43.45,43.45,0,0,0,6.09,5.62c2.1,1.58,4,3,5.87,4.37a37.8,37.8,0,0,1,4.33,3.62,3.67,3.67,0,0,1,1.3,2.46Z"/><polygon class="cls-1" points="57.17 369.43 60.65 369.43 60.65 231.81 72.83 231.81 72.83 205.34 44.71 205.34 44.71 230.07 48.19 230.07 48.19 208.81 69.35 208.81 69.35 228.34 57.17 228.34 57.17 369.43"/><path class="cls-1" d="M108,241.3v-5.08a3.88,3.88,0,0,0-.58-2.05,11.06,11.06,0,0,0-1.62-2.1c-.69-.72-1.43-1.42-2.21-2.11s-1.59-1.47-2.31-2.25a13.51,13.51,0,0,1-1.85-2.53,6.32,6.32,0,0,1-.79-3.1,6.58,6.58,0,0,1,.37-2.16,5.3,5.3,0,0,1,1.09-1.87,5.86,5.86,0,0,1,6.89-1.16,4.67,4.67,0,0,1,1.71,1.65,6.12,6.12,0,0,1,.79,2.22,15.08,15.08,0,0,1,.19,2.34s0,1.08,0,1.13H121.3c0-.21,0-.43.07-.63,0-.4.06-.83.06-1.27a12.68,12.68,0,0,0-1.38-6,13.63,13.63,0,0,0-3.87-4.53,18.31,18.31,0,0,0-6-2.91,27.2,27.2,0,0,0-7.64-1,25.1,25.1,0,0,0-7.27,1,17,17,0,0,0-5.56,2.82,12.51,12.51,0,0,0-3.53,4.36A12.76,12.76,0,0,0,85,221.8a9.1,9.1,0,0,0,.84,4A13.37,13.37,0,0,0,88,229.05a19.44,19.44,0,0,0,2.84,2.62q1.58,1.2,2.94,2.19a20.77,20.77,0,0,1,2.38,2,3.44,3.44,0,0,1,1.15,2.43v3Z"/><rect class="cls-1" x="97.1" y="246.69" width="10.83" height="10.01"/><path class="cls-1" d="M35,106v-5.08a3.87,3.87,0,0,0-.57-2,11,11,0,0,0-1.63-2.1c-.69-.71-1.43-1.42-2.2-2.1a30.88,30.88,0,0,1-2.31-2.26,12.78,12.78,0,0,1-1.85-2.53,6.18,6.18,0,0,1-.79-3.09A6.63,6.63,0,0,1,26,84.61a5.64,5.64,0,0,1,1.09-1.87,5.71,5.71,0,0,1,1.75-1.3,5.4,5.4,0,0,1,2.35-.5,5.56,5.56,0,0,1,2.79.64,4.6,4.6,0,0,1,1.71,1.65,6.19,6.19,0,0,1,.8,2.22,15.21,15.21,0,0,1,.18,2.35v1.13H48.36l.06-.64A10.35,10.35,0,0,0,48.49,87a12.64,12.64,0,0,0-1.39-6,13.55,13.55,0,0,0-3.87-4.54,18.41,18.41,0,0,0-6-2.91,27.13,27.13,0,0,0-7.63-1,25.05,25.05,0,0,0-7.27,1,16.83,16.83,0,0,0-5.56,2.82,12.74,12.74,0,0,0-3.54,4.36A12.9,12.9,0,0,0,12,86.49a9.25,9.25,0,0,0,.83,4A14.09,14.09,0,0,0,15,93.75a20.57,20.57,0,0,0,2.84,2.62l2.94,2.19a20.08,20.08,0,0,1,2.38,2A3.42,3.42,0,0,1,24.32,103v3Z"/><rect class="cls-1" x="24.15" y="111.38" width="10.83" height="10.01"/><path class="cls-1" d="M96.72,115.93v-2.78A2.16,2.16,0,0,0,96.4,112a6.14,6.14,0,0,0-.89-1.15c-.38-.39-.78-.78-1.21-1.15s-.87-.81-1.26-1.24a7.28,7.28,0,0,1-1-1.39,3.48,3.48,0,0,1-.43-1.69,3.67,3.67,0,0,1,.2-1.19,2.76,2.76,0,0,1,.6-1,2.79,2.79,0,0,1,1-.71,2.87,2.87,0,0,1,1.29-.28,3,3,0,0,1,1.53.35,2.54,2.54,0,0,1,.94.9,3.47,3.47,0,0,1,.43,1.22,7.83,7.83,0,0,1,.11,1.29s0,.58,0,.61H104c0-.11,0-.23,0-.34s0-.46,0-.7a7,7,0,0,0-.75-3.26,7.33,7.33,0,0,0-2.13-2.48A9.93,9.93,0,0,0,98,98.2a15,15,0,0,0-4.18-.56,13.79,13.79,0,0,0-4,.55,9.26,9.26,0,0,0-3,1.54,6.88,6.88,0,0,0-1.94,2.39,7,7,0,0,0-.69,3.13,4.94,4.94,0,0,0,.46,2.2,7.65,7.65,0,0,0,1.18,1.78,11.07,11.07,0,0,0,1.56,1.43c.57.44,1.11.84,1.61,1.2a10.32,10.32,0,0,1,1.3,1.1,1.85,1.85,0,0,1,.63,1.33v1.64Z"/><rect class="cls-1" x="90.76" y="118.89" width="5.94" height="5.48"/><path class="cls-1" d="M29.6,281.51V275a5,5,0,0,0-.74-2.64,14.54,14.54,0,0,0-2.09-2.7c-.89-.92-1.84-1.82-2.84-2.7S21.88,265,21,264a16.63,16.63,0,0,1-2.38-3.26,8,8,0,0,1-1-4A8.41,8.41,0,0,1,18,254a6.88,6.88,0,0,1,1.4-2.41,7.22,7.22,0,0,1,2.25-1.67,6.91,6.91,0,0,1,3-.65,7.17,7.17,0,0,1,3.59.82,6.08,6.08,0,0,1,2.2,2.13,7.94,7.94,0,0,1,1,2.85,18.93,18.93,0,0,1,.24,3s0,1.38,0,1.45h15l.09-.82c0-.51.08-1.06.08-1.63a16.32,16.32,0,0,0-1.78-7.66,17.46,17.46,0,0,0-5-5.83,23.45,23.45,0,0,0-7.67-3.74,34.76,34.76,0,0,0-9.82-1.32,32,32,0,0,0-9.36,1.29,21.82,21.82,0,0,0-7.14,3.62,16.29,16.29,0,0,0-4.56,5.62A16.52,16.52,0,0,0,0,256.43a11.86,11.86,0,0,0,1.07,5.16,18,18,0,0,0,2.78,4.16,25.83,25.83,0,0,0,3.66,3.38q2,1.53,3.78,2.81a26.91,26.91,0,0,1,3.06,2.57,4.4,4.4,0,0,1,1.48,3.13v3.87Z"/><rect class="cls-1" x="15.61" y="288.45" width="13.94" height="12.87"/><path class="cls-1" d="M127.51,170.77v-3.33a2.53,2.53,0,0,0-.38-1.35,7.44,7.44,0,0,0-1.07-1.38c-.45-.47-.94-.93-1.45-1.38s-1-1-1.51-1.48a8.58,8.58,0,0,1-1.22-1.67,4.14,4.14,0,0,1-.52-2,4.24,4.24,0,0,1,.24-1.42,3.44,3.44,0,0,1,.72-1.23,3.52,3.52,0,0,1,2.69-1.18,3.74,3.74,0,0,1,1.84.41,3.16,3.16,0,0,1,1.12,1.09,4.1,4.1,0,0,1,.52,1.46,9.8,9.8,0,0,1,.12,1.54v.74h7.66c0-.14,0-.28,0-.42a7.26,7.26,0,0,0,.05-.83,8.35,8.35,0,0,0-.91-3.91,9,9,0,0,0-2.55-3,12,12,0,0,0-3.91-1.91,17.77,17.77,0,0,0-5-.67,16.64,16.64,0,0,0-4.78.65,11.4,11.4,0,0,0-3.65,1.85,8.25,8.25,0,0,0-2.32,2.87,8.43,8.43,0,0,0-.83,3.75,6.1,6.1,0,0,0,.55,2.64,9.42,9.42,0,0,0,1.42,2.13,13.15,13.15,0,0,0,1.87,1.72l1.93,1.44a12.31,12.31,0,0,1,1.56,1.31,2.27,2.27,0,0,1,.76,1.6v2Z"/><rect class="cls-1" x="120.37" y="174.32" width="7.12" height="6.57"/><path class="cls-1" d="M17.9,206.68v-3.34a2.53,2.53,0,0,0-.38-1.35,7.27,7.27,0,0,0-1.06-1.38c-.46-.46-.94-.93-1.45-1.38a19.37,19.37,0,0,1-1.52-1.48,8.83,8.83,0,0,1-1.22-1.66,4.17,4.17,0,0,1-.51-2,4.59,4.59,0,0,1,.23-1.42,3.69,3.69,0,0,1,.72-1.23,3.78,3.78,0,0,1,1.15-.85,3.48,3.48,0,0,1,1.54-.33,3.63,3.63,0,0,1,1.84.42,3,3,0,0,1,1.12,1.09,4,4,0,0,1,.52,1.45,9.89,9.89,0,0,1,.12,1.54v.75h7.66c0-.15,0-.28.05-.42a7.33,7.33,0,0,0,0-.83,8.39,8.39,0,0,0-.91-3.92,9,9,0,0,0-2.54-3,12.14,12.14,0,0,0-3.92-1.91,18.09,18.09,0,0,0-5-.67,16.23,16.23,0,0,0-4.77.66,10.82,10.82,0,0,0-3.65,1.85,8.15,8.15,0,0,0-3.15,6.62,6.13,6.13,0,0,0,.54,2.64,9.14,9.14,0,0,0,1.42,2.12,13.18,13.18,0,0,0,1.87,1.73c.69.52,1.33,1,1.93,1.43a14.25,14.25,0,0,1,1.57,1.32,2.25,2.25,0,0,1,.75,1.59v2Z"/><rect class="cls-1" x="10.76" y="210.22" width="7.12" height="6.57"/></g></g></svg>